<svg width="32" height="32" viewBox="0 0 32 32" fill="none" xmlns="http://www.w3.org/2000/svg">
  <!-- Shield background -->
  <path d="M16 2 L28 8 L28 16 C28 22 22 28 16 30 C10 28 4 22 4 16 L4 8 Z" fill="#10B981" stroke="#059669" stroke-width="1"/>
  
  <!-- Shield inner -->
  <path d="M16 4 L26 9 L26 16 C26 20 21 25 16 27 C11 25 6 20 6 16 L6 9 Z" fill="#D1FAE5" stroke="#10B981" stroke-width="0.5"/>
  
  <!-- Currency symbols -->
  <text x="16" y="18" text-anchor="middle" font-family="Arial, sans-serif" font-size="8" font-weight="bold" fill="#059669">₦</text>
  <text x="16" y="26" text-anchor="middle" font-family="Arial, sans-serif" font-size="6" font-weight="bold" fill="#10B981">$</text>
  
  <!-- Security lock icon -->
  <rect x="12" y="10" width="8" height="6" rx="1" fill="#059669" stroke="#047857" stroke-width="0.5"/>
  <circle cx="16" cy="12" r="1.5" fill="#D1FAE5"/>
  <rect x="15" y="12" width="2" height="2" fill="#059669"/>
  
  <!-- Sparkle effects -->
  <circle cx="8" cy="8" r="0.8" fill="#FFFFFF" opacity="0.9"/>
  <circle cx="24" cy="6" r="0.6" fill="#FFFFFF" opacity="0.7"/>
  <circle cx="26" cy="24" r="0.5" fill="#FFFFFF" opacity="0.8"/>
</svg>
